<svg width="33" height="16" viewBox="0 0 33 16" fill="none" xmlns="http://www.w3.org/2000/svg">
<path opacity="0.35" d="M5.28869 0.689647H24.932C27.1479 0.689647 28.9443 2.48605 28.9443 4.70202V10.4795C28.9443 12.6954 27.1479 14.4918 24.932 14.4918H5.28869C3.07272 14.4918 1.27632 12.6954 1.27632 10.4795V4.70202C1.27632 2.48605 3.07272 0.689647 5.28869 0.689647Z" stroke="black" stroke-width="1.21914"/>
<path opacity="0.4" d="M30.7094 5.85718V10.7337C31.6905 10.3207 32.3285 9.35992 32.3285 8.29545C32.3285 7.23098 31.6905 6.27019 30.7094 5.85718" fill="black"/>
<path d="M2.97784 4.70209C2.97784 3.42577 4.0125 2.39111 5.28882 2.39111H24.9321C26.2084 2.39111 27.2431 3.42577 27.2431 4.70209V10.4795C27.2431 11.7558 26.2084 12.7905 24.9321 12.7905H5.28882C4.0125 12.7905 2.97784 11.7558 2.97784 10.4795V4.70209Z" fill="black"/>
</svg>
