<svg width="21" height="15" viewBox="0 0 21 15" fill="none" xmlns="http://www.w3.org/2000/svg">
<path fill-rule="evenodd" clip-rule="evenodd" d="M10.7576 3.22667C13.6077 3.2268 16.3488 4.34463 18.4143 6.34913C18.5699 6.50388 18.8185 6.50193 18.9717 6.34475L20.4585 4.81306C20.5361 4.73334 20.5793 4.62536 20.5787 4.513C20.578 4.40064 20.5336 4.29318 20.4551 4.21439C15.0336 -1.08904 6.48069 -1.08904 1.05925 4.21439C0.980717 4.29312 0.936158 4.40055 0.935434 4.51291C0.93471 4.62526 0.97788 4.73328 1.05539 4.81306L2.54266 6.34475C2.69576 6.50217 2.94457 6.50412 3.10001 6.34913C5.16584 4.3445 7.90725 3.22666 10.7576 3.22667ZM10.7983 7.94683C12.3643 7.94673 13.8743 8.54085 15.0351 9.61375C15.1921 9.76602 15.4394 9.76272 15.5924 9.60631L17.0776 8.07462C17.1558 7.99428 17.1992 7.88529 17.198 7.77203C17.1969 7.65878 17.1513 7.55071 17.0715 7.47201C13.5368 4.11579 8.06286 4.11579 4.52814 7.47201C4.44829 7.55071 4.40274 7.65883 4.40169 7.77212C4.40064 7.88541 4.44419 7.99439 4.52256 8.07462L6.00726 9.60631C6.1603 9.76272 6.40762 9.76602 6.56461 9.61375C7.7246 8.54156 9.23345 7.94749 10.7983 7.94683ZM13.8188 11.0323C13.821 11.1459 13.7773 11.2554 13.6979 11.335L11.1289 13.9813C11.0536 14.059 10.9509 14.1028 10.8438 14.1028C10.7367 14.1028 10.634 14.059 10.5587 13.9813L7.9893 11.335C7.90992 11.2553 7.86626 11.1458 7.86861 11.0322C7.87097 10.9186 7.91913 10.8111 8.00173 10.735C9.64236 9.31852 12.0452 9.31852 13.6859 10.735C13.7684 10.8112 13.8165 10.9187 13.8188 11.0323Z" fill="black"/>
</svg>
